<svg width="14" height="14" viewBox="0 0 14 14" fill="none" xmlns="http://www.w3.org/2000/svg">
<g clip-path="url(#clip0_10_4061)">
<path d="M12.8332 7H11.3865C11.1316 6.99945 10.8835 7.08243 10.6802 7.23623C10.4768 7.39003 10.3295 7.6062 10.2607 7.85166L8.88984 12.7283C8.881 12.7586 8.86258 12.7852 8.83734 12.8042C8.81209 12.8231 8.78139 12.8333 8.74984 12.8333C8.71828 12.8333 8.68758 12.8231 8.66234 12.8042C8.63709 12.7852 8.61867 12.7586 8.60984 12.7283L5.38984 1.27166C5.381 1.24137 5.36258 1.21476 5.33734 1.19583C5.31209 1.1769 5.28139 1.16666 5.24984 1.16666C5.21828 1.16666 5.18758 1.1769 5.16234 1.19583C5.13709 1.21476 5.11867 1.24137 5.10984 1.27166L3.739 6.14833C3.67044 6.39284 3.52398 6.6083 3.32184 6.76201C3.11971 6.91571 2.87294 6.99927 2.619 7H1.1665" stroke="#71717A" stroke-width="1.16667" stroke-linecap="round" stroke-linejoin="round"/>
</g>
<defs>
<clipPath id="clip0_10_4061">
<rect width="14" height="14" fill="white"/>
</clipPath>
</defs>
</svg>
