<svg width="16" height="16" viewBox="0 0 16 16" fill="none" xmlns="http://www.w3.org/2000/svg">
<path d="M14.0002 2H2.00016C1.63197 2 1.3335 2.29848 1.3335 2.66667V4.66667C1.3335 5.03486 1.63197 5.33333 2.00016 5.33333H14.0002C14.3684 5.33333 14.6668 5.03486 14.6668 4.66667V2.66667C14.6668 2.29848 14.3684 2 14.0002 2Z" stroke="#71717A" stroke-width="1.33333" stroke-linecap="round" stroke-linejoin="round"/>
<path d="M2.66699 5.33334V12.6667C2.66699 13.0203 2.80747 13.3594 3.05752 13.6095C3.30756 13.8595 3.6467 14 4.00033 14H12.0003C12.3539 14 12.6931 13.8595 12.9431 13.6095C13.1932 13.3594 13.3337 13.0203 13.3337 12.6667V5.33334M6.66699 8.00001H9.33366" stroke="#71717A" stroke-width="1.33333" stroke-linecap="round" stroke-linejoin="round"/>
</svg>
