<svg width="14" height="14" viewBox="0 0 14 14" fill="none" xmlns="http://www.w3.org/2000/svg">
<path d="M4.6665 0.666672H1.33317C0.964981 0.666672 0.666504 0.965149 0.666504 1.33334V6.00001C0.666504 6.3682 0.964981 6.66667 1.33317 6.66667H4.6665C5.03469 6.66667 5.33317 6.3682 5.33317 6.00001V1.33334C5.33317 0.965149 5.03469 0.666672 4.6665 0.666672Z" stroke="#71717A" stroke-width="1.33333" stroke-linecap="round" stroke-linejoin="round"/>
<path d="M12 0.666672H8.66667C8.29848 0.666672 8 0.965149 8 1.33334V3.33334C8 3.70153 8.29848 4.00001 8.66667 4.00001H12C12.3682 4.00001 12.6667 3.70153 12.6667 3.33334V1.33334C12.6667 0.965149 12.3682 0.666672 12 0.666672Z" stroke="#71717A" stroke-width="1.33333" stroke-linecap="round" stroke-linejoin="round"/>
<path d="M12 6.66667H8.66667C8.29848 6.66667 8 6.96515 8 7.33334V12C8 12.3682 8.29848 12.6667 8.66667 12.6667H12C12.3682 12.6667 12.6667 12.3682 12.6667 12V7.33334C12.6667 6.96515 12.3682 6.66667 12 6.66667Z" stroke="#71717A" stroke-width="1.33333" stroke-linecap="round" stroke-linejoin="round"/>
<path d="M4.6665 9.33334H1.33317C0.964981 9.33334 0.666504 9.63182 0.666504 10V12C0.666504 12.3682 0.964981 12.6667 1.33317 12.6667H4.6665C5.03469 12.6667 5.33317 12.3682 5.33317 12V10C5.33317 9.63182 5.03469 9.33334 4.6665 9.33334Z" stroke="#71717A" stroke-width="1.33333" stroke-linecap="round" stroke-linejoin="round"/>
</svg>
