<svg width="12" height="12" viewBox="0 0 12 12" fill="none" xmlns="http://www.w3.org/2000/svg">
<path d="M9.54452 7.2205V9.4405C9.54439 9.7546 9.41955 10.0558 9.19744 10.2779C8.97533 10.5 8.67413 10.6249 8.36002 10.625H2.55952C2.4034 10.6249 2.24883 10.594 2.10469 10.534C1.96055 10.474 1.82969 10.3862 1.71962 10.2754C1.60955 10.1647 1.52244 10.0333 1.4633 9.88886C1.40417 9.74437 1.37416 9.58962 1.37502 9.4335V3.6395C1.37409 3.48362 1.40411 3.32911 1.46333 3.18492C1.52255 3.04073 1.60981 2.90973 1.72003 2.7995C1.83025 2.68928 1.96125 2.60203 2.10544 2.54281C2.24963 2.48358 2.40414 2.45357 2.56002 2.4545H4.77952" stroke="#71717A" stroke-width="0.75" stroke-linecap="round" stroke-linejoin="round"/>
<path d="M9.54449 4.4975L7.50199 2.4545M3.41699 7.9015V6.819C3.41799 6.6405 3.48899 6.469 3.61449 6.3425L8.38049 1.5765C8.44373 1.51255 8.51903 1.46178 8.60202 1.42714C8.68502 1.39249 8.77406 1.37465 8.86399 1.37465C8.95393 1.37465 9.04297 1.39249 9.12596 1.42714C9.20896 1.46178 9.28425 1.51255 9.34749 1.5765L10.423 2.652C10.4869 2.71524 10.5377 2.79053 10.5724 2.87353C10.607 2.95652 10.6248 3.04556 10.6248 3.1355C10.6248 3.22543 10.607 3.31448 10.5724 3.39747C10.5377 3.48046 10.4869 3.55576 10.423 3.619L5.65699 8.385C5.53026 8.51086 5.3591 8.5818 5.18049 8.5825H4.09799C4.00853 8.58263 3.91991 8.56511 3.83723 8.53093C3.75455 8.49675 3.67942 8.44659 3.61616 8.38333C3.5529 8.32007 3.50274 8.24494 3.46856 8.16226C3.43439 8.07958 3.41686 7.99097 3.41699 7.9015Z" stroke="#71717A" stroke-width="0.75" stroke-linecap="round" stroke-linejoin="round"/>
</svg>
