<svg width="12" height="12" viewBox="0 0 12 12" fill="none" xmlns="http://www.w3.org/2000/svg">
<path d="M1.03076 6.174C0.989094 6.06174 0.989094 5.93825 1.03076 5.826C1.43661 4.84192 2.12552 4.00052 3.01015 3.40845C3.89478 2.81638 4.93529 2.50031 5.99976 2.50031C7.06424 2.50031 8.10475 2.81638 8.98938 3.40845C9.87401 4.00052 10.5629 4.84192 10.9688 5.826C11.0104 5.93825 11.0104 6.06174 10.9688 6.174C10.5629 7.15807 9.87401 7.99948 8.98938 8.59155C8.10475 9.18362 7.06424 9.49969 5.99976 9.49969C4.93529 9.49969 3.89478 9.18362 3.01015 8.59155C2.12552 7.99948 1.43661 7.15807 1.03076 6.174Z" stroke="#71717A" stroke-linecap="round" stroke-linejoin="round"/>
<path d="M6 7.5C6.82843 7.5 7.5 6.82843 7.5 6C7.5 5.17157 6.82843 4.5 6 4.5C5.17157 4.5 4.5 5.17157 4.5 6C4.5 6.82843 5.17157 7.5 6 7.5Z" stroke="#71717A" stroke-linecap="round" stroke-linejoin="round"/>
</svg>
