<svg width="15" height="12" viewBox="0 0 15 12" fill="none" xmlns="http://www.w3.org/2000/svg">
<path d="M13.9998 6H9.99984L8.6665 8H5.99984L4.6665 6H0.666504" stroke="#71717A" stroke-width="1.33333" stroke-linecap="round" stroke-linejoin="round"/>
<path d="M2.9665 1.40667L0.666504 6.00001V10C0.666504 10.3536 0.80698 10.6928 1.05703 10.9428C1.30708 11.1929 1.64622 11.3333 1.99984 11.3333H12.6665C13.0201 11.3333 13.3593 11.1929 13.6093 10.9428C13.8594 10.6928 13.9998 10.3536 13.9998 10V6.00001L11.6998 1.40667C11.5895 1.18453 11.4193 0.997586 11.2085 0.866858C10.9977 0.736131 10.7546 0.666803 10.5065 0.666672H4.15984C3.91178 0.666803 3.66868 0.736131 3.45787 0.866858C3.24705 0.997586 3.07689 1.18453 2.9665 1.40667Z" stroke="#71717A" stroke-width="1.33333" stroke-linecap="round" stroke-linejoin="round"/>
</svg>
