<svg width="9" height="11" viewBox="0 0 9 11" fill="none" xmlns="http://www.w3.org/2000/svg">
<path d="M0.5 10.5V1.5C0.5 1.42238 0.518072 1.34582 0.552786 1.27639C0.5875 1.20697 0.637902 1.14657 0.7 1.1C1.21929 0.710534 1.85089 0.5 2.5 0.5C4 0.5 5 1.5 6.1665 1.5C6.83317 1.5 7.34433 1.36667 7.7 1.1C7.77428 1.04429 7.86262 1.01036 7.9551 1.00202C8.04758 0.993681 8.14055 1.01126 8.22361 1.05279C8.30666 1.09431 8.37651 1.15815 8.42533 1.23713C8.47414 1.31612 8.5 1.40714 8.5 1.5V6.5C8.5 6.57762 8.48193 6.65418 8.44721 6.72361C8.4125 6.79303 8.3621 6.85343 8.3 6.9C7.78071 7.28947 7.14911 7.5 6.5 7.5C5 7.5 4 6.5 2.5 6.5C1.76206 6.50002 1.05001 6.77202 0.5 7.264" stroke="#F59E0B" stroke-linecap="round" stroke-linejoin="round"/>
</svg>
