<svg width="16" height="16" viewBox="0 0 16 16" fill="none" xmlns="http://www.w3.org/2000/svg">
<g clip-path="url(#clip0_10_3985)">
<path d="M8.39083 1.72401C8.14084 1.47394 7.80176 1.33342 7.44816 1.33334H2.66683C2.31321 1.33334 1.97407 1.47382 1.72402 1.72387C1.47397 1.97392 1.3335 2.31305 1.3335 2.66668V7.44801C1.33357 7.8016 1.4741 8.14069 1.72416 8.39068L7.52683 14.1933C7.82984 14.4944 8.23966 14.6634 8.66683 14.6634C9.094 14.6634 9.50382 14.4944 9.80683 14.1933L14.1935 9.80668C14.4946 9.50367 14.6636 9.09385 14.6636 8.66668C14.6636 8.23951 14.4946 7.82969 14.1935 7.52668L8.39083 1.72401Z" stroke="#71717A" stroke-width="1.33333" stroke-linecap="round" stroke-linejoin="round"/>
<path d="M5.00033 5.33335C5.18442 5.33335 5.33366 5.18412 5.33366 5.00002C5.33366 4.81593 5.18442 4.66669 5.00033 4.66669C4.81623 4.66669 4.66699 4.81593 4.66699 5.00002C4.66699 5.18412 4.81623 5.33335 5.00033 5.33335Z" fill="#71717A" stroke="#71717A" stroke-width="1.33333" stroke-linecap="round" stroke-linejoin="round"/>
</g>
<defs>
<clipPath id="clip0_10_3985">
<rect width="16" height="16" fill="white"/>
</clipPath>
</defs>
</svg>
