<svg width="16" height="16" viewBox="0 0 16 16" fill="none" xmlns="http://www.w3.org/2000/svg">
<path d="M10 3.84261C9.79312 3.84261 9.58907 3.79446 9.404 3.70198L6.596 2.29798C6.41094 2.20551 6.20689 2.15736 6 2.15736M10 3.84261C10.2069 3.84261 10.4109 3.79446 10.596 3.70198L13.0353 2.48198C13.1371 2.43116 13.2501 2.40719 13.3637 2.41236C13.4773 2.41754 13.5876 2.45168 13.6843 2.51154C13.781 2.5714 13.8607 2.65499 13.916 2.75437C13.9713 2.85375 14.0002 2.96561 14 3.07932V11.5887C13.9999 11.7124 13.9654 11.8337 13.9003 11.939C13.8352 12.0443 13.7421 12.1293 13.6313 12.1847L10.596 13.7027C10.4109 13.7951 10.2069 13.8433 10 13.8433M10 3.84261V13.8433M10 13.8433C9.79312 13.8433 9.58907 13.7951 9.404 13.7027L6.596 12.2987C6.41094 12.2062 6.20689 12.158 6 12.158C5.79312 12.158 5.58907 12.2062 5.404 12.2987L2.96467 13.5187C2.8629 13.5695 2.74982 13.5935 2.63617 13.5883C2.52253 13.5831 2.41211 13.5489 2.31541 13.4889C2.21872 13.429 2.13898 13.3453 2.08377 13.2458C2.02856 13.1464 1.99972 13.0344 2 12.9207V4.41198C2.00007 4.28821 2.03459 4.1669 2.0997 4.06163C2.16482 3.95637 2.25795 3.87131 2.36867 3.81598L5.404 2.29798C5.58907 2.20551 5.79312 2.15736 6 2.15736M6 2.15736V12.1573" stroke="#71717A" stroke-width="1.33333" stroke-linecap="round" stroke-linejoin="round"/>
</svg>
