<svg width="12" height="12" viewBox="0 0 12 12" fill="none" xmlns="http://www.w3.org/2000/svg">
<path d="M4.875 5.25C4.77554 5.25 4.68016 5.28951 4.60984 5.35984C4.53951 5.43016 4.5 5.52554 4.5 5.625C4.5 5.72446 4.53951 5.81984 4.60984 5.89016C4.68016 5.96049 4.77554 6 4.875 6H7.125C7.22446 6 7.31984 5.96049 7.39017 5.89016C7.46049 5.81984 7.5 5.72446 7.5 5.625C7.5 5.52554 7.46049 5.43016 7.39017 5.35984C7.31984 5.28951 7.22446 5.25 7.125 5.25H4.875ZM1.125 2.25C1.125 1.95163 1.24353 1.66548 1.4545 1.4545C1.66548 1.24353 1.95163 1.125 2.25 1.125H9.75C10.0484 1.125 10.3345 1.24353 10.5455 1.4545C10.7565 1.66548 10.875 1.95163 10.875 2.25V3C10.875 3.15828 10.8416 3.31478 10.777 3.45927C10.7124 3.60375 10.618 3.73298 10.5 3.8385V8.8125C10.5 9.35951 10.2827 9.88411 9.89591 10.2709C9.50911 10.6577 8.98451 10.875 8.4375 10.875H3.5625C3.01549 10.875 2.49089 10.6577 2.10409 10.2709C1.7173 9.88411 1.5 9.35951 1.5 8.8125V3.8385C1.26975 3.63225 1.125 3.333 1.125 3V2.25ZM2.25 4.125V8.8125C2.25 9.1606 2.38828 9.49444 2.63442 9.74058C2.88056 9.98672 3.2144 10.125 3.5625 10.125H8.4375C8.7856 10.125 9.11944 9.98672 9.36558 9.74058C9.61172 9.49444 9.75 9.1606 9.75 8.8125V4.125H2.25ZM2.25 1.875C2.15054 1.875 2.05516 1.91451 1.98484 1.98484C1.91451 2.05516 1.875 2.15054 1.875 2.25V3C1.875 3.09946 1.91451 3.19484 1.98484 3.26516C2.05516 3.33549 2.15054 3.375 2.25 3.375H9.75C9.84946 3.375 9.94484 3.33549 10.0152 3.26516C10.0855 3.19484 10.125 3.09946 10.125 3V2.25C10.125 2.15054 10.0855 2.05516 10.0152 1.98484C9.94484 1.91451 9.84946 1.875 9.75 1.875H2.25Z" fill="#DC2626"/>
</svg>
